<svg xmlns="http://www.w3.org/2000/svg" width="403.802" height="91.955" viewBox="0 0 403.802 91.955"><g fill="#818181"><path d="M264.764 55.237c-4.027-1.167-3.74 4.884-4.56 7.123-.768 2.102-4.02 8.06-6.77 4.865-2.407-2.797-1.808-8.498-1.642-11.867.26-5.32 1.07-10.608 1.9-15.863.682-4.31 6.69-22.336.332-23.66-5.023-1.01-4.886 7.158-5.55 10.28-1.045 4.895-1.938 9.877-3.26 14.707-7.883-4.562-16.118-.76-20.056 6.955-1.054 2.058-1.78 4.275-2.195 6.548-.304 1.66.33 5.21-.328 6.584-.478.966-5.903 9.325-7.42 6.216-1.414-2.904.716-9.26.976-12.38.368-4.416.725-9.535-1.295-13.637-4.9-9.956-15.587-2.35-19.943 3.487.116-2.56-.493-6.008-3.717-6.244-4.544-.3-4.356 5.125-4.487 8.108-.292 6.69 1.278 16.27-4.283 20.997-8.62 7.326-6.356-10.43-5.65-13.715.89-4.144 2.093-8.207 3.117-12.317 1.236-3.836-5.69-7.147-6.955-3.374-8.37-7.232-17.15-2.29-21.724 6.342-2.202 4.153-3.57 8.757-3.968 13.44-.193 2.363-3.144 10.775-6.744 10.262-1.66-6.83 2.257-14.44 1.58-21.45-.908-9.37-10.935-7.73-16.977-4l2.43-14.067c.746-4.318 3.968-12.454-3.023-12.864-5.103-.3-4.66 7.287-5.203 10.676-.853 5.314-1.694 10.63-2.546 15.946-.846 5.29-1.697 10.58-2.503 15.875-.42 2.753-.818 5.507-1.17 8.27-.258 2.01-1.56 5.845-.877 7.763 1.043 2.928 6.726 1.678 7.21-1.035l1.17-6.538c.78-4.354.59-12.034 3.773-15.485 1.813-1.976 11.014-8.026 10.902-1.822-.063 5.117-1.543 10.12-2.057 15.19-.446 4.4-.86 11.376 4.933 12.095 4.912.61 8.604-3.738 11.154-7.278 4.866 8.118 14.376 4.05 19.188-1.81.844 4.318 3.93 8.078 8.415 8.852 2.056.355 4.166-.066 5.975-1.088 1.053-.604 1.995-1.35 2.826-2.238.733 1.272 2.294 1.772 3.677 1.626 5.398-.52 4.305-7.71 5.263-11.67 1.142-4.72 2.718-9.536 5.303-13.68 2.896-4.657 8.987-6.452 8.745.845-.173 4.975-1.488 9.833-1.62 14.825-.128 4.733 1.684 9.35 6.755 10.358 5.034 1.016 9.146-2.95 11.71-6.78 5.346 7.116 14.763 4.677 19.44-1.792 1.896 7.217 9.2 11.55 15.318 6.092 2.715-2.423 11.087-15.73 4.436-17.673-.702-.203.695.203 0 0zm-95.836-7.904c-.802 4.742-1.954 9.854-4.523 13.98-2.79 4.49-8.893 6.55-9.014-.644-.08-4.78 1.218-9.81 3.68-13.908 1.353-2.245 3.47-4.278 6.282-4.19 3.448.146 4.06 1.89 3.576 4.76-.225 1.33.224-1.327 0 0zm74.972 4.054c-.506 3.45-1.214 7.71-3.24 10.62-2.465 3.542-8.022 4.67-9.752-.216-1.535-4.337-.056-9.847 3.268-12.968 2.885-2.735 10.444-2.522 9.724 2.565-.115.787.112-.787 0 0zM403.44 58.208c-.766-1.686-3.745-4.156-5.333-1.924-.978 3.744-3.562 7.37-6.544 9.785-5.667 4.585-10.954 1.437-14.524-3.914 7.438-2.416 14.24-6.983 13.985-15.765-.34-11.694-14.033-7.315-19.12-1.587.273-4.877 3.385-28.144-2.968-28.496-5.652-.277-3.577 8.515-3.598 11.942-.04 6.79-.27 13.583-.625 20.363-.336 6.39-1.57 10.532-6.372 15.075-3.984 3.77-10.78 6.387-12.348-.86 7.23-9.06 13.348-20.168 15.874-31.542.863-3.892 2.012-10.373-1.44-13.418-3.73-3.29-10.272-1.45-13.52 1.547-8.575 7.907-9.664 23.392-9.873 34.242-.048 2.455.035 4.883.448 7.31.467 2.745-1.263 4.702-3.367 6.49-5.13 4.365-7.088-1.77-6.85-5.987.33-5.812 2.078-11.553 3.568-17.147.638-2.396 1.796-4.95-.574-6.778-1.456-1.122-4.854-1.83-5.63.507-12.464-10.763-23.043 4.764-25.217 16.297-.354 1.878.203 6-.733 7.47-1.64 2.478-3.973 4.472-6.89 5.234-8.87 2.27-7.87-7.58-7.23-13.607.248-2.318.797-13.98 3.143-13.98h10.172c3.616 0 3.41-7.762-.763-7.762h-9.374c.624-3.75 1.25-7.497 1.873-11.246.993-5.966-6.803-5.228-7.708-.205-.384 2.127-.486 10.094-2.065 11.45-2.953.253-6.507-1.075-7.672 2.667-1.365 4.38 2.53 5.42 5.984 5.095-1.48 9.125-4.444 21.155-.576 30.048 4.06 9.35 17.877 5.418 23.455-.083 4.89 8.057 14.35 3.953 19.146-1.873.834 4.318 3.938 8.078 8.414 8.852 5.1.88 9.134-3.025 11.916-6.79 5.812 9.196 16.866 5.14 23.07-1.282-.123 1.936-1.246 5.916.094 7.59 1.455 1.828 6.953 2.715 6.953-.78v-8.738c4.78 7.16 11.958 11.99 20.535 7.987 3.986-1.862 14.738-10.79 12.283-16.192-.358-.79.36.787 0 0zm-82.856-10.875c-.81 4.743-1.95 9.853-4.525 13.98-2.78 4.473-8.922 6.564-9.013-.644-.087-4.777 1.217-9.813 3.678-13.908 1.35-2.245 3.47-4.278 6.28-4.19 3.452.146 4.06 1.888 3.58 4.76-.228 1.33.222-1.327 0 0zm23.623 2.432c.692-5.073 1.95-10.143 3.472-15.027.37-1.188 4.364-12.728 6.734-9.94 2.285 2.69-2.045 11.21-3.1 13.777-1.964 4.77-4.277 9.62-7.342 13.79.026-.87.104-1.738.235-2.6.156-1.145-.154 1.15 0 0zm29.39 6.043c-.202-3.074 5.1-10.246 8.93-9.39 3.88.866-3.81 10.806-8.93 9.39z"/></g><path fill="#F37024" d="M77.922 13.367c-17.83-17.824-46.73-17.822-64.555 0-17.822 17.825-17.825 46.728 0 64.55C28.33 92.882 51.525 96.3 68.992 86.143c.004 0 .004.005.01.005 5.77-3.032 11.89-2.868 14.642-1.885.803.286.832.21.592-.47-.96-2.725-1.082-8.936 2.013-14.818-.002-.005-.006-.005-.01-.005 10.098-17.46 6.62-40.664-8.318-55.605z"/><path fill-rule="evenodd" clip-rule="evenodd" fill="#D35927" d="M76.98 41.84l-.016.028c.37-1-10.396.74-10.396.74l5.043-11.656-15.872 7.016 4.834-11.387-34.054 26.77-11.065-18.47L3.436 63.037c2.228 5.412 5.535 10.483 9.93 14.88 12.928 12.928 31.992 17.23 48.206 11.616L74.828 59.57l-3.2-5.163 5.35-12.567zM63.81 72.574c-.212.154-.424.3-.636.445.213-.147.425-.292.636-.446zm-1.028.717c-.242.162-.483.312-.724.46.24-.15.482-.298.724-.46zM76.36 42.94c-.02.025-.038.053-.058.078-.013.006-.013.01-.013.014 0-.002.03-.042.07-.092zM60.38 26.98c-.028.054-.05.11-.08.16.03-.05.052-.106.08-.16zm.365 47.534c.335-.178.674-.37 1.014-.575-.34.203-.68.396-1.015.574zm6.63-4.928c.164-.158.328-.314.492-.476-.164.162-.328.318-.493.476zm-3.124 2.657c.198-.148.396-.296.592-.45-.196.154-.393.3-.59.45zm1.056-.83c.187-.152.374-.304.56-.463-.186.16-.373.31-.56.464zm1.044-.887c.176-.156.352-.31.525-.47-.174.16-.35.314-.525.47zm3.42-3.434c-.14.16-.283.318-.426.477.143-.16.286-.318.427-.478zm-.937 1.03c-.15.16-.305.318-.458.477.153-.16.307-.317.458-.478zm3.52-4.32c-.11.157-.22.313-.334.47.112-.156.222-.313.332-.47zm2.12-3.52c-.083.162-.163.324-.25.484.087-.16.167-.322.25-.483zm-.647 1.194c-.09.16-.18.317-.276.476.095-.16.184-.317.276-.476zm-.71 1.173c-.1.157-.2.315-.302.472.103-.157.203-.315.303-.473zM70.28 66.5c.132-.156.263-.314.393-.475-.13.16-.26.32-.394.475zm.892-1.1c.123-.155.243-.313.362-.472-.12.158-.24.317-.362.473zm-.83-10.17c-.004 0-.004.007-.004.007-.03.035-.062.068-.1.104.037-.034.1-.108.1-.108h.003z"/><path fill-rule="evenodd" clip-rule="evenodd" fill="#fff" d="M15.594 57.764c.03.062.033.074 1.742 3.584v.016c8.345 15.572 27.747 21.5 43.41 13.15 5.474-2.914 11.802-9.38 14.558-16v-.003c.37-.818.37-1.8-.088-2.656-.78-1.47-2.606-2.025-4.074-1.243-.312.165-.576.38-.804.62h.003c-.002 0-3.984 4.33-6.615 7.286-1.52 1.716-2.586 2.86-3.326 3.29-.99.577-2.646-.644-2.028-1.88 1.244-2.484 12.82-14.234 17.918-20.897 0-.004.166-.206.238-.31h.003c.79-1.154.927-2.696.225-4.01-1-1.88-3.338-2.593-5.222-1.593-.453.24-.827.552-1.13.917L53.23 57.108c-.135.146-.27.27-.443.367-.702.37-1.567.102-1.94-.594-.316-.605-.132-1.276.324-1.76 8.286-8.7 14.705-16.444 19.84-23.324l.3-.395c.923-1.17 1.06-2.768.312-4.167-.998-1.888-3.347-2.6-5.234-1.595-.494.263-.903.62-1.23 1.03-5.61 7.172-19.818 22.48-20.033 22.613-.005 0-.01.01-.01.012-.7.367-1.565.104-1.935-.59-.113-.213-.42-.836-.032-1.403.008-.006.017-.024.024-.027 7.196-7.605 16.785-19.612 16.785-19.612.964-1.29 1.278-2.882.468-4.395-1.11-2.093-4.008-2.885-6.092-1.77-.588.31-1.467 1.217-1.467 1.217-18.828 21.406-20.067 22.65-20.1 22.685-1.98 2.22-8.054 2.467-8.672-1.978-.167-3.33.39-4.262 1.925-9.33 1.753-5.8-7.37-8.635-10.04-.674 0 0-2.755 6.95-2.6 12.935.1 3.91.726 7.848 2.214 11.414.004.006.007.018.01.028.012.01.02.03.023.046"/></svg>